<svg xmlns="http://www.w3.org/2000/svg" version="1.1" xmlns:xlink="http://www.w3.org/1999/xlink" xmlns:svgjs="http://svgjs.com/svgjs" width="512" height="512" x="0" y="0" viewBox="0 0 32 32" style="enable-background:new 0 0 512 512" xml:space="preserve"><g><path d="M16 29.5a12.48 12.48 0 0 0 9.51-20.59L27 7.45A1 1 0 1 0 25.55 6l-1.46 1.49A12.41 12.41 0 0 0 17 4.55v-1h2a1 1 0 0 0 0-2h-6a1 1 0 0 0 0 2h2v1a12.41 12.41 0 0 0-7.09 2.94L6.45 6A1 1 0 0 0 5 7.45l1.49 1.46A12.48 12.48 0 0 0 16 29.5zm0-2A10.5 10.5 0 1 1 26.5 17 10.51 10.51 0 0 1 16 27.5z" fill="#000000" data-original="#000000"></path><path d="M17 14.18V9.5a1 1 0 0 0-2 0v4.68a3 3 0 1 0 2 0zM16 18a1 1 0 1 1 1-1 1 1 0 0 1-1 1z" fill="#000000" data-original="#000000"></path></g></svg>